<svg xmlns="http://www.w3.org/2000/svg" viewBox="0 0 640 590" role="img" aria-labelledby="title desc">
  <title id="title">JP Sistema de Cobrança</title>
  <desc id="desc">Logotipo JP com gráfico de crescimento e o texto Sistema de Cobrança</desc>
  <defs>
    <linearGradient id="blue" x1="0" y1="0" x2="1" y2="1">
      <stop offset="0" stop-color="#1598f4"/>
      <stop offset=".48" stop-color="#0755c8"/>
      <stop offset="1" stop-color="#062a75"/>
    </linearGradient>
    <linearGradient id="green" x1="0" y1="0" x2="1" y2="1">
      <stop offset="0" stop-color="#08766b"/>
      <stop offset=".52" stop-color="#11b78c"/>
      <stop offset="1" stop-color="#00d07c"/>
    </linearGradient>
    <linearGradient id="arrow" x1="0" y1="1" x2="1" y2="0">
      <stop offset="0" stop-color="#075c58"/>
      <stop offset="1" stop-color="#00bf6f"/>
    </linearGradient>
    <filter id="soft" x="-20%" y="-20%" width="140%" height="140%">
      <feDropShadow dx="0" dy="5" stdDeviation="5" flood-color="#0b2b58" flood-opacity=".12"/>
    </filter>
  </defs>

  <g filter="url(#soft)">
    <path fill="url(#blue)" d="M103 72H270v274c0 96-56 151-146 151-76 0-124-39-132-111l72-8c5 39 25 58 61 58 44 0 68-29 68-86V144h-90z"/>
    <path fill="#0a377f" opacity=".42" d="M193 144h77v202c0 96-56 151-146 151-30 0-56-6-77-18 104 13 146-55 146-142z"/>

    <path fill="url(#green)" fill-rule="evenodd" d="M289 72h157c114 0 180 59 180 153 0 97-66 156-180 156h-73v116h-84V72zm84 76v157h67c65 0 98-26 98-79 0-51-33-78-98-78h-67z"/>
    <path fill="#075f67" opacity=".32" d="M373 305h67c53 0 84-18 95-54-6 68-44 130-129 130h-33v116h-84l84-96z"/>

    <g>
      <rect x="389" y="228" width="25" height="57" rx="5" fill="#08725f"/>
      <rect x="429" y="197" width="25" height="88" rx="5" fill="#07896a"/>
      <rect x="469" y="161" width="25" height="124" rx="5" fill="#00af73"/>
      <path d="M367 306c48-5 94-24 132-57 21-18 38-40 51-64" fill="none" stroke="url(#arrow)" stroke-width="15" stroke-linecap="round"/>
      <path d="M541 174l34-12-8 35z" fill="#00b86f"/>
    </g>
  </g>

  <text x="320" y="535" text-anchor="middle" font-family="Arial,Helvetica,sans-serif" font-weight="900" font-size="78" letter-spacing="1" fill="#062b67">SISTEMA</text>
  <text x="320" y="580" text-anchor="middle" font-family="Arial,Helvetica,sans-serif" font-weight="800" font-size="34" letter-spacing="11" fill="#078b48">DE COBRANÇA</text>
</svg>